<svg width="303" height="106" fill="none" xmlns="http://www.w3.org/2000/svg"><g clip-path="url(#clip0)" fill="#EB0609"><path d="M40.062 104.742a.38.38 0 00.195.32c.143.07.294.12.45.149l.172.031v.48c-.388.016-.828.05-1.322.101-.494.052-.933.112-1.32.172v-.48l.267-.103a1.75 1.75 0 00.377-.204c.14-.112.257-.25.343-.408.148-.269.272-.55.373-.84l1.3-3.585c.152-.366.273-.744.36-1.13.054-.263.082-.53.083-.797a.634.634 0 00-.101-.38.686.686 0 00-.29-.224l-.172-.068v-.443a4.23 4.23 0 00.816-.123c.306-.075.608-.17.902-.285.242-.087.472-.202.687-.343l.254-.027 2.704 6.889c.091.247.2.486.328.716a.87.87 0 00.266.306c.081.05.172.084.266.099l.151.022v.479c-.422.019-.877.053-1.373.099-.496.046-.978.1-1.472.154-.494.055-.95.12-1.373.189v-.48l.19-.07a.997.997 0 00.392-.23.447.447 0 00.1-.343 1.896 1.896 0 00-.17-.581l-1.82-4.708.228-.038-1.681 5.013c-.08.214-.118.442-.11.671zm.316-2.022l3.046-.319v.58l-3.046.32v-.581zM53.231 99.83c.253-.176.451-.42.57-.703.118-.325.174-.67.163-1.015a1.64 1.64 0 00-.53-1.309c-.354-.306-.84-.433-1.454-.377v5.829c0 .498.009.865.026 1.103a.856.856 0 00.127.473.467.467 0 00.316.142l.316.031v.48a32.287 32.287 0 00-3.97.417v-.48l.316-.096a.621.621 0 00.317-.216c.084-.159.127-.335.126-.514.017-.245.025-.608.025-1.089V98.49c0-.504-.008-.875-.025-1.114a.91.91 0 00-.12-.473.413.413 0 00-.31-.132l-.329-.03v-.48c.388-.014.801-.047 1.24-.097.437-.05.876-.103 1.314-.158.437-.055.846-.101 1.225-.14a6.843 6.843 0 011.948.04c.488.071.946.28 1.32.6a1.542 1.542 0 01.473 1.189 1.863 1.863 0 01-.62 1.423c-.411.384-1.064.703-1.957.957l-1.63.36a5.674 5.674 0 001.123-.606zm1.1-.066l2.022 2.617c.254.319.444.552.575.697.09.112.2.207.323.282a.891.891 0 00.266.085l.228.028v.48c-.457.022-.951.062-1.486.118-.536.057-1.03.12-1.473.192l-2.679-3.835 2.224-.664zM65.46 102.82a4.436 4.436 0 01-2.042.727 4.964 4.964 0 01-1.876-.132 3.584 3.584 0 01-1.448-.789 3.583 3.583 0 01-.928-1.372 5.112 5.112 0 01-.323-1.886 5.074 5.074 0 01.299-1.736c.19-.543.482-1.045.858-1.48a4.688 4.688 0 011.373-1.079 5.012 5.012 0 011.832-.533 5.825 5.825 0 011.674.038c.408.06.8.2 1.156.41-.024.415-.032.837-.024 1.265l.024 1.298-.353.113-.215-.42a7.399 7.399 0 00-.784-1.238 2.617 2.617 0 00-.822-.701 1.616 1.616 0 00-.934-.171 1.439 1.439 0 00-.923.418 2.14 2.14 0 00-.492 1.018 7.412 7.412 0 00-.153 1.633c-.004.64.064 1.279.202 1.904.115.531.298 1.044.544 1.528.189.382.458.717.79.984.264.214.603.317.942.286a.798.798 0 00.644-.391c.135-.228.202-.624.202-1.188v-.685c0-.396-.048-.648-.144-.757a.763.763 0 00-.525-.185l-.24-.012v-.454a28.377 28.377 0 001.757-.134c.614-.065 1.184-.14 1.706-.23v.455a.775.775 0 00-.36.228.856.856 0 00-.133.461 14.46 14.46 0 00-.026 1.029v2.107l-.343.087a4.144 4.144 0 00-.309-.492 3.914 3.914 0 00-.588-.602l.746.011a4.209 4.209 0 01-.764.667zM76.14 100.738c-.072.421-.125.852-.158 1.293-1.247.098-2.456.208-3.628.331a96.811 96.811 0 00-3.26.392v-.48l.329-.097a.55.55 0 00.29-.196c.087-.157.133-.334.132-.514.02-.247.033-.626.033-1.14v-3.944c0-.514-.012-.893-.033-1.138a.915.915 0 00-.132-.485.42.42 0 00-.29-.134l-.33-.03v-.48a94.087 94.087 0 003.216-.286c1.115-.117 2.284-.257 3.508-.42 0 .415-.01.82 0 1.221.01.401.016.808.033 1.228l-.316.108a7.08 7.08 0 00-.443-.931 2.134 2.134 0 00-.442-.554 1.154 1.154 0 00-.515-.25 2.258 2.258 0 00-.665-.02l-1.187.126v3.523l.72-.113a2.35 2.35 0 00.703-.207c.167-.085.308-.213.41-.37.115-.19.204-.392.266-.604l.062-.208.343-.036c-.017.28-.03.599-.038.957s0 .717 0 1.073c0 .357.02.686.038.962l-.343.036-.062-.195a1.836 1.836 0 00-.254-.515.906.906 0 00-.417-.303 1.688 1.688 0 00-.707-.064l-.721.038v2.071c-.01.305.026.61.108.904a.663.663 0 00.366.435c.233.08.483.101.727.062l.354-.038c.251-.026.492-.114.702-.255.28-.204.523-.453.719-.739.327-.46.62-.942.878-1.444l.278.072c-.113.49-.202.945-.274 1.358zM80.835 101.541c-.26.01-.552.031-.872.06-.319.029-.641.063-.96.101-.32.038-.612.079-.872.123v-.48l.315-.109a.718.718 0 00.373-.285c.121-.215.194-.454.214-.7.054-.455.078-.913.07-1.371v-4.004a1.541 1.541 0 00-.145-.742.838.838 0 00-.462-.38l-.302-.107v-.48c.293 0 .633-.027 1.016-.063.383-.036.764-.076 1.138-.119.374-.042.705-.094.993-.149l4.044 5.447-.14.065-.05-3.226c0-.416-.024-.83-.07-1.243a1.178 1.178 0 00-.214-.616.7.7 0 00-.486-.207l-.317-.031v-.479c.254-.01.532-.029.836-.056a32.6 32.6 0 00.91-.096c.303-.036.576-.076.82-.118v.48l-.29.106a.732.732 0 00-.368.285c-.104.199-.162.418-.172.642-.029.299-.044.72-.044 1.27v5.921c-.547.031-1.109.091-1.68.172l-4.563-6.277.1-.074.05 4.022c.001.445.027.889.078 1.331.013.237.09.467.221.665a.602.602 0 00.46.211l.368.024.001.487zM91.3 92.284l-.33.034a1.373 1.373 0 00-.935.573 7.647 7.647 0 00-.883 1.64l-.33.791h-.38c.044-.552.083-1.106.116-1.661.033-.556.05-1.094.05-1.615a97.332 97.332 0 001.623-.132c.517-.046 1.03-.093 1.524-.14.494-.049.994-.102 1.491-.159l1.53-.171c.514-.063 1.065-.134 1.63-.21 0 .522.014 1.057.044 1.606.03.548.066 1.093.108 1.635l-.367.077-.343-.721a7.175 7.175 0 00-.632-1.171 1.675 1.675 0 00-.575-.552 1.116 1.116 0 00-.626-.105l-.316.032v5.81c0 .514.009.89.026 1.127a.84.84 0 00.127.472.493.493 0 00.328.144l.343.026v.48a40.256 40.256 0 00-4.045.425v-.48l.33-.098a.641.641 0 00.327-.21 1.06 1.06 0 00.134-.501c.02-.243.031-.62.031-1.134v-5.812zM99.3 93.287c0-.513-.01-.89-.03-1.132a.913.913 0 00-.134-.478.42.42 0 00-.29-.134l-.33-.029v-.48a42.424 42.424 0 002.686-.243c.467-.057.896-.115 1.284-.172v.48l-.33.098a.519.519 0 00-.283.194 1.168 1.168 0 00-.134.514c-.026.247-.039.627-.037 1.142v3.964c0 .514.012.891.037 1.131a.99.99 0 00.134.48.397.397 0 00.283.134l.33.03v.478c-.388.017-.815.046-1.284.09-.468.045-.935.095-1.402.148-.467.053-.896.113-1.284.171v-.48l.33-.097a.546.546 0 00.29-.196 1.07 1.07 0 00.134-.514c.02-.247.03-.626.03-1.14v-3.96zM107.023 98.79c-.262.011-.552.032-.873.06-.321.03-.64.064-.96.102-.319.038-.611.079-.873.123v-.48l.317-.11a.713.713 0 00.373-.284c.12-.215.193-.453.214-.698.054-.455.078-.913.071-1.371v-4.004a1.583 1.583 0 00-.146-.742.844.844 0 00-.462-.38l-.304-.107v-.48c.296 0 .635-.028 1.018-.064.383-.036.764-.075 1.138-.118.374-.043.705-.094.992-.149l4.045 5.447-.139.065-.052-3.227a12 12 0 00-.068-1.243 1.185 1.185 0 00-.215-.615.7.7 0 00-.487-.208l-.316-.029v-.48c.253-.01.531-.029.834-.056.304-.028.607-.06.909-.096.302-.036.579-.074.822-.117v.478l-.29.107a.712.712 0 00-.367.286 1.504 1.504 0 00-.171.643c-.03.296-.045.72-.045 1.267v5.922c-.548.032-1.109.089-1.682.171l-4.561-6.277.101-.073.05 4.022c.001.444.026.889.075 1.33.015.238.091.467.222.666a.61.61 0 00.461.21l.368.024.001.486zM121.741 95.957c-.072.42-.124.857-.158 1.292-1.248.099-2.458.209-3.628.331a97.54 97.54 0 00-3.261.393v-.48l.33-.098c.116-.03.218-.1.29-.195.086-.155.131-.33.132-.506.022-.247.033-.626.033-1.14V91.61c0-.514-.011-.893-.033-1.138a.92.92 0 00-.132-.485.423.423 0 00-.29-.134l-.33-.03v-.48c1.03-.074 2.102-.169 3.216-.285 1.115-.117 2.284-.257 3.508-.42-.009.414-.009.821 0 1.22 0 .4.014.808.031 1.228l-.316.108a6.831 6.831 0 00-.443-.931 2.093 2.093 0 00-.442-.554 1.156 1.156 0 00-.515-.25 2.257 2.257 0 00-.664-.02l-1.188.126v3.523l.721-.113c.243-.032.48-.102.702-.207.167-.085.309-.213.41-.37.114-.189.204-.391.266-.602l.063-.21.344-.036a25.104 25.104 0 00-.038 2.03c.008.357.021.686.038.962l-.344.036-.063-.195a1.824 1.824 0 00-.254-.523.894.894 0 00-.417-.304 1.72 1.72 0 00-.707-.063l-.721.038v2.064c-.011.305.026.61.108.903a.67.67 0 00.366.436c.234.08.483.101.727.062l.354-.036a1.58 1.58 0 00.702-.258 3.07 3.07 0 00.721-.739c.325-.46.618-.942.877-1.443l.278.072c-.112.489-.196.946-.273 1.365zM131.943 88.017l-.328.034a1.371 1.371 0 00-.935.571 7.692 7.692 0 00-.886 1.64l-.329.793h-.378c.042-.552.079-1.104.114-1.66.034-.555.049-1.094.049-1.615.566-.042 1.107-.087 1.626-.133.514-.047 1.029-.093 1.522-.141.492-.048.995-.1 1.491-.156a145.276 145.276 0 003.161-.39c0 .523.015 1.058.043 1.605.029.548.065 1.094.108 1.638l-.367.075-.343-.722a7.147 7.147 0 00-.632-1.17 1.667 1.667 0 00-.575-.553 1.126 1.126 0 00-.624-.104l-.318.034v5.807c0 .514.009.89.026 1.128a.85.85 0 00.127.473.49.49 0 00.328.143l.343.027v.48a42.216 42.216 0 00-4.045.423v-.48l.33-.097a.617.617 0 00.327-.211 1.04 1.04 0 00.134-.499c.021-.243.031-.62.031-1.135v-5.805zM139.533 94.297a.384.384 0 00.196.32c.142.07.293.12.448.15l.172.03v.48c-.39.016-.829.05-1.322.102-.492.051-.933.11-1.321.171v-.48l.266-.103c.134-.053.261-.121.379-.204.138-.112.252-.25.335-.408.148-.269.272-.55.372-.84l1.303-3.585c.151-.366.272-.744.36-1.13.053-.262.081-.53.082-.797a.633.633 0 00-.101-.38.684.684 0 00-.292-.224l-.171-.07v-.44a4.19 4.19 0 00.815-.124c.307-.075.609-.17.904-.285.245-.086.478-.201.695-.343l.253-.025 2.704 6.887c.091.247.202.487.33.717a.875.875 0 00.264.306c.082.05.172.084.266.1l.151.02v.48c-.42.02-.875.054-1.373.1-.497.046-.98.1-1.472.154-.493.055-.951.119-1.373.189v-.48l.189-.07c.146-.047.28-.126.393-.23a.464.464 0 00.101-.343 1.906 1.906 0 00-.172-.581l-1.821-4.71.229-.036-1.682 5.013a1.752 1.752 0 00-.107.669zm.316-2.022l3.046-.32v.581l-3.046.32v-.58zM150.781 94.196c-.261.01-.551.03-.872.06-.321.029-.64.063-.961.1a16.92 16.92 0 00-.872.124V94l.316-.11a.717.717 0 00.374-.284 1.72 1.72 0 00.215-.698c.053-.455.076-.913.068-1.371v-4a1.57 1.57 0 00-.144-.743.842.842 0 00-.461-.38l-.304-.107v-.48c.295 0 .635-.027 1.017-.063.383-.036.762-.075 1.138-.118.376-.043.706-.095.992-.15l4.045 5.447-.139.066-.051-3.227a11.73 11.73 0 00-.069-1.243 1.177 1.177 0 00-.215-.616.7.7 0 00-.487-.207l-.316-.031v-.478c.252-.01.53-.03.834-.057.304-.027.608-.06.91-.096.302-.036.576-.075.822-.118v.48l-.29.106a.714.714 0 00-.367.285 1.52 1.52 0 00-.172.643c-.031.298-.045.72-.045 1.268v5.922a20.96 20.96 0 00-1.681.172l-4.562-6.277.101-.074.05 4.022c.001.445.026.89.076 1.33.015.238.091.467.221.666a.605.605 0 00.462.211l.365.024.002.482zM165.095 92.358c-.293.197-.61.358-.942.478-.354.128-.723.21-1.098.247a4.92 4.92 0 01-1.878-.13 3.576 3.576 0 01-1.446-.789 3.591 3.591 0 01-.931-1.371 5.14 5.14 0 01-.321-1.886 5.079 5.079 0 01.297-1.736 4.6 4.6 0 01.858-1.48 4.691 4.691 0 011.373-1.078 5.016 5.016 0 011.833-.534 5.894 5.894 0 011.675.039c.408.06.8.2 1.155.408-.024.416-.032.838-.024 1.267 0 .427.017.857.024 1.298l-.353.111-.215-.418a7.332 7.332 0 00-.783-1.238 2.655 2.655 0 00-.822-.703 1.636 1.636 0 00-.935-.171 1.44 1.44 0 00-.923.418c-.252.29-.422.641-.493 1.019a7.454 7.454 0 00-.151 1.632c-.004.64.063 1.278.201 1.903.114.53.297 1.044.544 1.527.188.382.457.718.79.984.264.216.602.318.942.287a.794.794 0 00.645-.39c.134-.227.202-.625.202-1.19v-.685c0-.394-.049-.646-.145-.754a.756.756 0 00-.526-.186l-.24-.011v-.455c.556-.026 1.142-.07 1.758-.134a28.546 28.546 0 001.705-.23v.455a.789.789 0 00-.36.226.881.881 0 00-.132.463c-.017.216-.026.556-.026 1.019v2.109l-.343.087a3.973 3.973 0 00-.309-.492 3.784 3.784 0 00-.589-.602l.747.01a4.183 4.183 0 01-.764.676zM174.796 83.151a3.636 3.636 0 012.369 2.087c.24.584.357 1.212.343 1.844a5.145 5.145 0 01-.544 2.368 4.715 4.715 0 01-1.515 1.75 4.738 4.738 0 01-2.264.82 4.278 4.278 0 01-1.675-.14 3.644 3.644 0 01-2.351-2.096 4.624 4.624 0 01-.343-1.851 5.133 5.133 0 01.544-2.368 4.682 4.682 0 011.51-1.744 4.707 4.707 0 012.243-.809 4.348 4.348 0 011.683.139zm-.025 3.31a6.485 6.485 0 00-.563-1.587 3.007 3.007 0 00-.766-.98 1.111 1.111 0 00-.82-.287 1.02 1.02 0 00-.714.396 2.344 2.344 0 00-.424.974 6.919 6.919 0 00-.139 1.478 9.371 9.371 0 00.215 2.105c.117.55.306 1.082.563 1.583.185.375.445.709.763.98a1.144 1.144 0 00.822.287 1.032 1.032 0 00.714-.391 2.28 2.28 0 00.424-.972c.1-.49.146-.988.139-1.487a9.487 9.487 0 00-.214-2.098zM191.906 88.59c-.072.419-.125.85-.158 1.292a129.84 129.84 0 00-3.628.33 102.82 102.82 0 00-3.26.392v-.478l.328-.098a.553.553 0 00.291-.196c.087-.157.133-.334.132-.514.021-.247.033-.626.033-1.14v-3.943c0-.515-.012-.894-.033-1.14a.912.912 0 00-.132-.486.42.42 0 00-.291-.132l-.328-.029v-.48a94.652 94.652 0 003.216-.286c1.114-.118 2.283-.258 3.508-.42-.01.412-.01.819 0 1.219.009.4.02.809.032 1.227l-.316.11a6.997 6.997 0 00-.442-.933 2.175 2.175 0 00-.443-.552 1.141 1.141 0 00-.515-.25 2.204 2.204 0 00-.664-.019l-1.188.125v3.524l.721-.114c.243-.032.479-.102.7-.207.169-.085.311-.213.412-.372.115-.188.203-.39.264-.602l.064-.207.343-.036c-.017.28-.029.598-.038.956-.008.359 0 .717 0 1.074 0 .356.021.685.038.961l-.343.036-.064-.195a1.788 1.788 0 00-.252-.523.88.88 0 00-.417-.303 1.718 1.718 0 00-.707-.066l-.721.04v2.067c-.01.306.026.611.107.906a.666.666 0 00.367.434c.233.08.482.103.726.063l.355-.038c.251-.028.491-.116.7-.257a3.01 3.01 0 00.721-.737c.327-.46.62-.942.879-1.444l.278.072a19.59 19.59 0 00-.275 1.368zM196.601 89.385c-.262.01-.552.03-.873.06a29.656 29.656 0 00-1.831.223v-.48l.316-.108a.708.708 0 00.372-.287c.121-.214.194-.452.215-.697.054-.456.077-.914.07-1.372v-4.003a1.558 1.558 0 00-.146-.743.838.838 0 00-.462-.38l-.303-.108v-.468c.295-.007.634-.028 1.017-.064.384-.035.763-.075 1.138-.12.376-.043.705-.092.992-.147l4.045 5.447-.139.065-.05-3.227c-.001-.415-.025-.83-.07-1.243a1.177 1.177 0 00-.215-.615.7.7 0 00-.487-.208l-.316-.03v-.48c.254 0 .53-.028.834-.056.304-.027.608-.06.911-.096.304-.036.577-.075.821-.118v.48l-.29.106a.725.725 0 00-.368.285 1.519 1.519 0 00-.171.643c-.03.298-.045.72-.045 1.267v5.922c-.547.032-1.108.092-1.68.171l-4.563-6.275.101-.073.05 4.022c.001.444.026.889.077 1.33.014.237.09.467.22.665a.63.63 0 00.461.211l.368.024.001.477zM208.506 87.484a.971.971 0 00.367-.84c.01-.273-.075-.54-.24-.758a2.004 2.004 0 00-.631-.515 7.234 7.234 0 00-.858-.389c-.316-.114-.63-.241-.943-.38a4.447 4.447 0 01-.858-.49 2.252 2.252 0 01-.631-.706 1.994 1.994 0 01-.24-1.028 2.628 2.628 0 01.391-1.4c.281-.446.67-.814 1.131-1.07a4.47 4.47 0 011.8-.544 4.608 4.608 0 012.49.39c-.017.343-.03.698-.038 1.064-.008.365-.008.732 0 1.099l-.343.111c-.312-.74-.643-1.285-.994-1.632a1.452 1.452 0 00-1.232-.444 1.374 1.374 0 00-.827.326.961.961 0 00-.285.737c-.011.269.074.533.24.746.176.205.39.374.632.495.278.144.564.27.858.377.312.115.623.237.935.369.304.126.591.287.858.478.26.186.475.425.632.703.17.325.253.688.24 1.055a2.79 2.79 0 01-.417 1.47 3.246 3.246 0 01-1.258 1.15 5.533 5.533 0 01-2.092.59 5.551 5.551 0 01-1.51-.042 4.688 4.688 0 01-1.181-.33c.016-.344.028-.747.031-1.201.004-.454 0-.878 0-1.28l.344-.112a5.168 5.168 0 001.144 1.773 1.958 1.958 0 001.637.548c.307-.028.6-.139.848-.32zM219.939 85.65c-.072.42-.125.851-.158 1.293-1.247.098-2.456.208-3.628.331-1.171.124-2.258.254-3.26.391v-.478l.327-.098a.55.55 0 00.292-.195c.087-.158.133-.335.132-.515.021-.247.031-.625.031-1.14v-3.943c0-.514-.01-.893-.031-1.14a.897.897 0 00-.132-.484.426.426 0 00-.292-.133l-.327-.03v-.48a94.404 94.404 0 003.216-.286c1.114-.118 2.283-.258 3.507-.42-.008.414-.008.82 0 1.219 0 .4.016.81.033 1.23l-.316.107a7.142 7.142 0 00-.443-.932 2.15 2.15 0 00-.442-.552 1.149 1.149 0 00-.515-.25 2.26 2.26 0 00-.664-.02l-1.188.126v3.523l.721-.113c.243-.033.479-.103.7-.208.168-.084.31-.212.412-.37.114-.189.203-.392.264-.604l.064-.207.343-.036c-.017.28-.029.598-.038.957-.008.358 0 .716 0 1.073 0 .356.021.686.038.962l-.343.036-.064-.196a1.795 1.795 0 00-.252-.514.885.885 0 00-.417-.304 1.717 1.717 0 00-.707-.065l-.721.04v2.07c-.011.305.025.61.107.904a.665.665 0 00.367.434c.233.082.482.103.726.064l.355-.038c.251-.028.491-.115.7-.256.281-.203.524-.453.721-.739.326-.46.62-.942.879-1.443l.278.072c-.113.481-.204.934-.275 1.358zM231.919 85.618c-.467.047-.93.095-1.39.148-.46.053-.882.111-1.27.171v-.48l.292-.093a.684.684 0 00.343-.212.967.967 0 00.132-.5c.018-.24.026-.62.026-1.132v-4.888l.172-.03-2.605 6.84c-.453.022-.905.07-1.353.142l-2.893-5.87.075-.235.064 4.841c-.002.326.03.65.094.969.03.184.124.351.266.471a.966.966 0 00.448.172l.241.026v.48c-.253.01-.541.029-.859.058-.317.03-.646.065-.967.103-.321.038-.606.077-.858.122v-.48l.315-.11c.154-.05.295-.134.412-.245.125-.143.208-.317.24-.504.064-.332.092-.67.083-1.007v-4.629c.006-.25-.024-.5-.089-.74a.637.637 0 00-.493-.398l-.278-.07v-.48c.515-.023 1.054-.06 1.593-.117a23.69 23.69 0 001.578-.218l2.769 5.606-.152.042 2.338-6.173a21.071 21.071 0 003.06-.32v.478l-.368.103a.487.487 0 00-.278.192 1.164 1.164 0 00-.113.499 17.05 17.05 0 00-.026 1.095v4.016c0 .512.009.89.026 1.133-.003.167.036.332.113.48a.375.375 0 00.278.136l.368.023v.48c-.421.026-.866.06-1.334.105zM235.254 84.833l.329-.084a.587.587 0 00.29-.182.925.925 0 00.132-.475c.021-.235.033-.583.033-1.046V78.78c0-.471-.012-.82-.033-1.046a.802.802 0 00-.132-.446.391.391 0 00-.29-.114l-.329-.016v-.48c.388-.024.802-.06 1.244-.106.442-.047.884-.097 1.328-.151a55.87 55.87 0 011.219-.14 7.174 7.174 0 011.839.013c.464.052.901.24 1.258.538.303.275.455.669.455 1.183.007.31-.072.616-.228.883-.182.28-.428.512-.719.676a7.053 7.053 0 01-1.277.57l-.026-.075c.944-.03 1.658.126 2.142.47a1.613 1.613 0 01.728 1.372c0 .782-.356 1.442-1.068 1.98-.712.538-1.721.876-3.027 1.011-.371.04-.783.078-1.232.112-.45.034-.905.075-1.359.123-.455.048-.881.105-1.277.172v-.475zm4.613-5.231c.261-.34.395-.761.379-1.19a1.61 1.61 0 00-.462-1.22c-.307-.292-.757-.407-1.345-.343v3.334l.455-.048a1.394 1.394 0 00.969-.533h.004zm.515 4.188c.27-.405.407-.884.391-1.371a2.098 2.098 0 00-.227-1.005 1.581 1.581 0 00-.626-.648 1.534 1.534 0 00-.929-.171l-.556.058v2.664c0 .44.062.74.184.904.122.164.343.23.65.195a1.48 1.48 0 001.113-.626zM246.05 76.735a.906.906 0 00-.132-.478.423.423 0 00-.29-.134l-.33-.029v-.48a48.264 48.264 0 002.674-.242c.468-.056.899-.115 1.294-.171v.48l-.328.098a.517.517 0 00-.285.193c-.082.16-.127.336-.132.515-.026.247-.038.626-.038 1.14v4.178c-.006.326.013.651.057.974a.648.648 0 00.228.456.779.779 0 00.515.079l.127-.014c.285-.03.628-.243 1.03-.638.521-.559.973-1.179 1.345-1.846l.24-.405.33.093a15.369 15.369 0 00-.343 1.543 23.697 23.697 0 00-.203 1.524c-1.214.086-2.358.185-3.432.298a75 75 0 00-3.077.386v-.48l.343-.111a.63.63 0 00.297-.196.929.929 0 00.12-.466c.017-.229.026-.575.026-1.04v-4.09c-.004-.51-.021-.888-.036-1.137zM261.292 81.303c-.072.42-.123.857-.157 1.293-1.247.097-2.457.207-3.628.33-1.172.124-2.259.255-3.261.393v-.48l.33-.098a.55.55 0 00.29-.195c.087-.158.133-.335.133-.515.021-.246.031-.625.031-1.14v-3.943c0-.514-.01-.893-.031-1.138a.93.93 0 00-.133-.486.423.423 0 00-.29-.133l-.33-.03v-.48a94.507 94.507 0 003.218-.286c1.115-.118 2.284-.258 3.506-.42-.009.415-.009.822 0 1.22 0 .4.014.808.031 1.228l-.316.108a6.572 6.572 0 00-.443-.93 2.096 2.096 0 00-.443-.554 1.139 1.139 0 00-.514-.25 2.21 2.21 0 00-.665-.018l-1.187.124v3.523l.721-.113c.243-.032.48-.102.702-.208.167-.085.308-.212.41-.37.115-.188.204-.39.266-.602l.063-.209.343-.036c-.015.28-.029.598-.037.957-.009.358-.009.716 0 1.073.008.357.022.686.037.962l-.343.036-.063-.196a1.85 1.85 0 00-.254-.522.882.882 0 00-.417-.302 1.686 1.686 0 00-.707-.065l-.721.037v2.071c-.011.305.026.61.108.904a.669.669 0 00.366.435c.233.08.483.101.727.062l.354-.036c.251-.028.492-.116.702-.257.281-.203.524-.453.72-.739.326-.46.619-.942.877-1.444l.278.072c-.108.495-.199.95-.273 1.367zM74.985 14.825l10.672-1.121L98.64 26.748l.53-.057-6.693-13.702 10.105-1.061v26.468l-7.947.835-15.669-14.992-.568.059 7.872 15.81-11.278 1.186-.007-26.469zM106.973 27.725V11.466l9.197-.966 4.39 20.033c.417 1.922.493 3.503 2.423 2.915 1.969-.622 1.363-2.071.946-3.993l-4.201-19.334 12.452-1.309v16.259c0 5.975-4.996 11.34-12.603 12.139-7.608.798-12.604-3.508-12.604-9.485zM136.577 34.825V8.358l25.359-2.662v9.868l-14.232-5.315v7.715l7.23-3.67.076 11.183-7.306-3.353v8.507l14.232-8.34v9.868l-25.359 2.666zM174.331 30.861l-9.61-25.459 12.037-1.263 7.379 20.665.417-.045.038-21.443 11.733-1.231-9.885 27.502-12.109 1.274zM196.126 16.965v-3.177c0-8.962 7.228-13.01 13.664-13.685 6.435-.676 13.624 1.858 13.624 10.82v3.175c0 8.886-7.19 12.931-13.624 13.606-6.434.676-13.664-1.855-13.664-10.74zm15.972 3.842V6.515c0-1.966-.302-3.56-2.308-3.35-1.969.207-2.31 1.869-2.31 3.835v14.292c0 1.967.343 3.556 2.31 3.35 2.009-.21 2.311-1.868 2.311-3.835h-.003zM.5 56.283l13.06-1.372 15.886 15.96.648-.066-8.197-16.77 12.366-1.297v32.398l-9.727 1.029L5.362 67.82l-.695.072L14.3 87.24.5 88.689V56.283zM38.402 70.488V66.6c0-10.973 8.847-15.92 16.72-16.747 7.874-.826 16.673 2.275 16.673 13.24v3.888c0 10.873-8.799 15.823-16.672 16.65-7.874.825-16.72-2.267-16.72-13.144zm19.545 4.703V57.703c0-2.4-.37-4.358-2.825-4.1-2.402.252-2.824 2.286-2.824 4.693v17.488c0 2.4.415 4.351 2.825 4.1 2.454-.26 2.824-2.291 2.824-4.692v-.001zM75.083 66.635V62.75c0-11.892 8.846-15.921 16.72-16.748 6.113-.64 14.357 1.593 15.237 11.818l-12.87 1.353-1.296-5.879c-.742-3.393-1.76-4.026-3.659-3.364-1.668.592-2.131 1.612-2.131 3 .029.707.122 1.41.278 2.1l3.604 16.74c.556 2.672 1.436 4.152 3.705 3.314 1.621-.588 2.131-1.614 2.131-3a8.907 8.907 0 00-.278-2.101l-1.39-6.332 11.949-1.255v.88c0 11.799-8.8 15.823-15.284 16.504-7.87.826-16.716-.419-16.716-13.144zM121.027 76.017l.927-29.71-.881.092-8.985 12.418-3.706-13.493v-.368l39.554-4.155-.093.381-3.705 14.27-8.476-10.585-.834.087.927 29.517-14.728 1.546zM151.275 60.346V40.459l11.255-1.183 5.371 24.518c.515 2.352.602 4.286 2.964 3.574 2.402-.761 1.668-2.534 1.158-4.886l-5.148-23.66 15.237-1.6V57.11c0 7.31-6.113 13.875-15.421 14.852-9.308.977-15.416-4.305-15.416-11.616zM187.386 69.048V36.659l19.775-2.03c10.329-.992 13.756 5.265 13.756 9.845 0 5.738-2.778 10.148-10.744 12.001v.878l5.881-.617 7.358 8.53-14.774 1.551-6.298-8.64-1.344.141v9.301l-13.61 1.429zm13.291-15.878l2.456-.258c1.759-.185 2.547-1.702 2.547-3.413v-7.396c0-1.76-.788-3.157-2.547-2.972l-2.456.258v13.78zM227.188 32.48l13.061-1.372 15.886 15.961.647-.068-8.196-16.768 12.356-1.3v32.39l-9.725 1.03-19.174-18.346-.695.074 9.634 19.346-13.803 1.45.009-32.398zM263.825 61.022l12.042-33.654 14.867-1.562 11.764 31.154-14.774 1.543-2.5-6.955-7.036.739-.047 7.223-14.316 1.512zm14.359-12.382l5.789-.607-5.279-14.808-.463.05-.047 15.365z"/></g><defs><clipPath id="clip0"><path fill="#fff" transform="translate(.5)" d="M0 0h302v106H0z"/></clipPath></defs></svg>